<?xml version="1.0" encoding="UTF-8" standalone="no"?>
<!-- Created with Inkscape (http://www.inkscape.org/) -->

<svg
   width="210mm"
   height="297mm"
   viewBox="0 0 210 297"
   version="1.1"
   id="svg1"
   inkscape:version="1.4.2 (2aeb623e1d, 2025-05-12)"
   sodipodi:docname="pic.svg"
   xmlns:inkscape="http://www.inkscape.org/namespaces/inkscape"
   xmlns:sodipodi="http://sodipodi.sourceforge.net/DTD/sodipodi-0.dtd"
   xmlns="http://www.w3.org/2000/svg"
   xmlns:svg="http://www.w3.org/2000/svg">
  <sodipodi:namedview
     id="namedview1"
     pagecolor="#505050"
     bordercolor="#eeeeee"
     borderopacity="1"
     inkscape:showpageshadow="0"
     inkscape:pageopacity="0"
     inkscape:pagecheckerboard="0"
     inkscape:deskcolor="#505050"
     inkscape:document-units="mm"
     inkscape:zoom="0.32063344"
     inkscape:cx="171.53545"
     inkscape:cy="547.35401"
     inkscape:window-width="1326"
     inkscape:window-height="707"
     inkscape:window-x="0"
     inkscape:window-y="0"
     inkscape:window-maximized="1"
     inkscape:current-layer="layer1" />
  <defs
     id="defs1" />
  <g
     inkscape:label="Layer 1"
     inkscape:groupmode="layer"
     id="layer1">
    <g
       id="g1"
       transform="matrix(0.80919163,0,0,0.7807111,160.51962,34.690457)">
      <path
         style="fill:#2b0000;stroke-width:0.264583"
         d="m -182.54509,318.46743 c -0.80704,-0.46284 -1.17294,-1.05635 -1.18221,-1.9176 -0.007,-0.64968 0.45026,-1.22473 2.70357,-3.39997 6.27021,-6.05298 18.57746,-17.03792 26.23009,-23.4119 15.67815,-13.05853 29.17183,-20.48973 44.04287,-24.25512 3.62028,-0.91667 12.580734,-2.44057 15.688519,-2.66813 2.454484,-0.17974 2.481673,-0.17511 3.203102,0.54721 0.790945,0.79189 0.889926,1.3335 0.428699,2.34579 -0.388427,0.85249 -1.214784,1.14724 -3.802137,1.3561 -2.514142,0.20299 -10.209453,1.47981 -13.369723,2.21837 -13.33597,3.11661 -26.26763,9.85404 -39.98989,20.83477 -6.94076,5.55411 -21.62536,18.47147 -28.34122,24.93047 -3.97089,3.81903 -4.42904,4.09824 -5.61167,3.42001 z M 61.533031,297.64567 c -10.041996,-3.00426 -17.41229,-5.5939 -29.633328,-10.41196 -8.691787,-3.42667 -12.218855,-4.96681 -19.843749,-8.66503 -9.3176515,-4.51924 -14.5395819,-6.38558 -21.8172401,-7.79758 -3.4334189,-0.66614 -4.1119269,-1.08077 -4.1119269,-2.51275 0,-0.9398 1.166908,-2.12487 2.0866,-2.11908 1.004697,0.006 7.1201779,1.39902 10.3488169,2.35673 4.864039,1.44285 8.413091,2.89584 15.8750001,6.49925 13.984115,6.75301 34.486214,14.65207 48.418744,18.65479 1.091406,0.31356 2.788047,0.80441 3.770312,1.09077 l 1.785938,0.52068 v 2.10544 c 0,1.83753 -0.05892,2.10257 -0.463021,2.08262 -0.254662,-0.0127 -3.141927,-0.82431 -6.416146,-1.80388 z m -84.868945,-24.64125 c -0.329538,-0.1324 -0.712031,-0.53758 -0.849979,-0.90043 -0.504507,-1.32694 -2.418112,-23.40809 -2.912367,-33.60584 -0.650078,-13.41284 -0.189253,-21.37537 1.765803,-30.51109 0.762696,-3.56399 1.357813,-4.5584 2.727994,-4.5584 0.844873,0 2.116667,1.14776 2.116667,1.91024 0,0.28331 -0.248854,1.48746 -0.553008,2.67589 -2.783292,10.87503 -2.73522,27.07285 0.167762,56.52643 0.718494,7.28982 0.679309,7.86879 -0.571127,8.43854 -0.765025,0.34856 -1.075407,0.35261 -1.891745,0.0246 z m -121.951776,-1.05053 c -0.86726,-0.34944 -1.22595,-1.22648 -1.01456,-2.48081 0.10097,-0.59907 0.27251,-2.1127 0.3812,-3.36365 0.23951,-2.75643 0.93755,-4.05969 4.66292,-8.70577 2.43778,-3.04028 4.62212,-6.03597 4.6139,-6.32772 -0.002,-0.085 -0.7296,-0.51176 -1.61602,-0.94832 -2.93282,-1.44442 -3.78104,-3.15669 -3.04384,-6.1445 0.54205,-2.19686 2.99165,-7.32171 5.4896,-11.48493 2.75559,-4.59261 3.51318,-6.66583 3.51627,-9.62266 0.002,-2.33034 -0.0332,-2.4661 -1.66768,-6.35 -0.9186,-2.18281 -2.50173,-6.05234 -3.51807,-8.59895 -3.31181,-8.29824 -6.89936,-15.51885 -10.12229,-20.37292 -4.18111,-6.29723 -6.07047,-10.39147 -6.86314,-14.87248 -1.56532,-8.84885 -0.29742,-15.05915 5.6605,-27.72545 4.26194,-9.06073 6.20717,-14.16398 6.88698,-18.06774 0.59106,-3.39408 -0.003,-4.25891 -4.76456,-6.93113 -5.30408,-2.97697 -6.53763,-5.32284 -4.74843,-9.03018 1.39328,-2.88701 9.666,-10.24258 19.72662,-17.539651 7.08715,-5.140388 6.51449,-4.526018 6.3083,-6.767655 -0.19097,-2.076106 0.4623,-10.400562 1.06228,-13.536358 0.81847,-4.277762 2.52659,-9.586362 4.6172,-14.34963 1.9163,-4.366125 5.05343,-8.886806 10.01877,-14.437307 4.13395,-4.621119 6.30045,-7.346444 8.76541,-11.026338 2.410514,-3.598606 3.238671,-4.462798 4.278602,-4.464775 0.856777,-0.0016 2.0866,1.176026 2.0866,1.998086 0,0.668322 -3.548695,6.104215 -6.181182,9.468342 -0.9289,1.187064 -3.16259,3.828285 -4.96376,5.869379 -7.29138,8.262636 -9.56259,11.884033 -12.15718,19.384385 -2.31637,6.696102 -3.19958,12.013375 -3.2637,19.64866 -0.0514,6.124593 0.41417,5.429067 -7.43314,11.104088 -9.89933,7.159014 -18.64775,14.826844 -19.31504,16.929294 -0.2435,0.76717 0.37701,1.40079 2.64473,2.7006 1.0195,0.58435 2.29758,1.34654 2.84016,1.69374 1.19525,0.76485 1.36321,0.78478 1.00717,0.1195 -0.461,-0.86139 -0.30784,-1.76336 0.42365,-2.49485 0.88402,-0.88402 1.93502,-0.90323 2.7873,-0.051 0.72043,0.72043 2.86205,7.42143 5.92394,18.5357 6.49741,23.58475 11.38201,37.17576 18.4952,51.46147 5.76822,11.58454 11.07938,19.41669 17.594636,25.94607 6.337123,6.35088 12.103553,9.8325 19.317978,11.66374 10.33849,2.62424 21.235273,0.42751 29.995291,-6.04682 11.043449,-8.16194 25.216037,-28.82746 32.533396,-47.438 4.7331156,-12.03793 8.3696838,-25.3699 9.5986734,-35.18958 0.5076348,-4.05601 0.4296621,-8.38932 -0.3034771,-16.86619 -0.4088421,-4.72718 -0.4094057,-5.36259 -0.00788,-8.86354 0.4634653,-4.0409 1.3986457,-8.9643 2.9527685,-15.545273 0.8515508,-3.605916 0.9712298,-4.532278 0.9912799,-7.672916 0.02077,-3.251775 -0.042942,-3.761566 -0.7108586,-5.688542 -1.1789463,-3.401332 -2.5572879,-6.084517 -5.3006995,-10.31875 -3.1114046,-4.802203 -4.9404926,-8.501618 -5.6905366,-11.509375 -0.308453,-1.236927 -0.917093,-5.463646 -1.352536,-9.392708 -0.921444,-8.314296 -1.109157,-9.499539 -2.011373,-12.7 -1.299329,-4.609153 -4.022371,-8.981424 -6.920389,-11.111777 -4.74109,-3.485208 -10.486861,-4.91457 -14.842704,-3.69238 -1.861018,0.522174 -2.648194,0.312095 -3.176667,-0.847778 -0.446344,-0.979617 -0.357621,-1.542301 0.355656,-2.255578 0.942019,-0.94202 2.294061,-1.303472 5.473932,-1.463389 9.89543,-0.497647 19.363349,6.431341 22.672733,16.592777 1.118571,3.434564 1.648759,6.352403 2.427859,13.361458 1.3490256,12.136298 1.6825752,13.179923 6.6598427,20.837552 2.75903263,4.244829 4.9237,8.614052 5.9307465,11.970781 0.629322,2.09768 0.7141871,2.822358 0.7126366,6.085417 -0.00185,3.88757 -0.0127,3.956145 -2.0333572,12.832291 -1.81599948,7.9772 -2.08697515,10.1567 -1.94082725,15.61042 0.19052381,7.10959 0.79981159,8.76102 6.12729215,16.60746 2.7306746,4.02178 7.2662445,9.58629 7.8137015,9.58629 0.37514,0 2.879672,3.23596 3.679198,4.75368 1.145926,2.17528 1.622624,4.7288 1.622624,8.69189 0,4.65809 -0.684094,8.37721 -2.920984,15.88005 -2.394914,8.03291 -2.962995,10.78997 -2.980016,14.46292 -0.0168,3.62816 0.681173,5.96382 2.885983,9.6573 2.137529,3.58076 4.700219,9.00197 5.54102,11.72168 0.686282,2.21988 0.712981,2.5111 0.57,6.2177 -0.170169,4.41143 -0.5788,6.51235 -2.54413,13.08048 -1.832039,6.12261 -2.980105,11.86328 -3.00336,15.01764 -0.03067,4.15994 0.868953,6.65694 3.938503,10.93179 2.177082,3.03191 3.130479,5.78908 2.91955,8.44314 -0.07897,0.9937 -0.0316,1.84804 0.107231,1.93384 0.461547,0.28525 0.253097,1.78245 -0.584743,4.19995 -0.458396,1.32265 -0.965435,2.58341 -1.126757,2.8017 -0.161324,0.21828 -0.52451,0.85285 -0.807082,1.41015 -0.629955,1.24245 -1.834208,2.29401 -2.627083,2.29401 -0.733295,0 -1.689803,-0.86111 -1.903865,-1.71402 -0.160377,-0.63897 0.843937,-3.23734 1.584585,-4.09964 0.716063,-0.83368 1.017709,-2.34934 1.080881,-5.43113 0.07804,-3.80733 -0.272315,-4.99867 -2.263169,-7.69564 -3.676537,-4.98049 -5.062652,-9.68293 -4.46273,-15.13994 0.40223,-3.65876 1.634739,-9.27841 3.144716,-14.33838 2.034466,-6.81754 2.430915,-8.89158 2.430915,-12.71749 0,-1.40409 -0.175567,-2.96682 -0.432673,-3.85124 -0.693958,-2.38713 -2.614274,-6.49124 -4.60927,-9.85097 -3.081401,-5.1893 -4.1188084,-8.42574 -4.083259,-12.73864 0.037386,-4.53554 0.6204797,-7.21905 4.053084,-18.65313 2.438958,-8.12421 2.586246,-15.69763 0.374234,-19.24269 -0.387874,-0.62162 -1.976141,-2.43991 -3.5294809,-4.04064 -3.4972466,-3.60394 -4.4061644,-4.73223 -7.0336489,-8.73125 l -2.08608076,-3.175 -0.57824687,4.68138 c -1.21153497,9.80836 -4.23325127,21.38368 -8.75839877,33.55091 -3.9789838,10.69869 -8.4184458,19.257 -15.4813098,29.84448 -10.94359,16.40486 -20.437488,25.00821 -31.429447,28.48129 -4.197836,1.32635 -8.030963,1.81078 -13.094342,1.65481 -6.7559,-0.2081 -11.170735,-1.29233 -16.933333,-4.1587 -15.159652,-7.54046 -28.211922,-25.96046 -39.742462,-56.08646 -2.98872,-7.80867 -6.36404,-18.51791 -10.00692,-31.75 -1.64263,-5.96654 -2.24125,-7.71288 -2.24125,-6.53837 0,0.65411 -1.49014,5.21081 -2.69804,8.2503 -0.57658,1.45088 -2.12218,4.90369 -3.43466,7.67291 -5.40126,11.39617 -6.9009,16.69255 -6.44496,22.76203 0.45845,6.10278 1.83363,9.74352 6.14965,16.28102 1.29366,1.9595 2.7952,4.29641 3.33676,5.19313 1.95343,3.23451 5.37932,10.99881 11.83056,26.81232 2.59242,6.35463 1.93611,10.50748 -2.94792,18.65313 -2.25477,3.76052 -4.653,8.80181 -4.78297,10.05416 -0.0763,0.73541 0.0469,0.8618 1.6769,1.7198 2.17705,1.14593 2.77125,1.67438 3.14039,2.79288 0.64551,1.95591 -1.12887,5.20222 -5.86449,10.72933 -0.69917,0.81603 -1.73174,2.24478 -2.29462,3.175 -0.86002,1.42132 -1.05062,2.00811 -1.19393,3.6757 -0.36537,4.25154 -1.38535,5.62594 -3.53298,4.76065 z m 47.725331,-19.87129 c -0.685102,-0.39857 -0.765831,-0.68556 -2.567511,-9.12776 -0.89722,-4.20415 -2.40758,-10.67998 -3.35636,-14.39076 -2.38394,-9.32381 -3.24581,-12.97909 -3.25116,-13.78839 -0.006,-0.91589 1.17899,-2.08661 2.1121,-2.08661 0.86602,0 2.11653,1.15443 2.11696,1.95431 2.7e-4,0.53515 0.44174,2.34794 3.38998,13.92069 1.286759,5.05092 4.811805,21.0675 4.811805,21.86315 0,0.62508 -1.476153,1.95027 -2.162461,1.9413 -0.338613,-0.004 -0.830625,-0.13311 -1.093353,-0.28593 z m -76.159751,-11.26056 c -0.91065,-0.24165 -2.89461,-3.92396 -4.18095,-7.76005 -1.63428,-4.8737 -2.10197,-7.42484 -2.52221,-13.75833 -0.60129,-9.06201 -1.79262,-15.55028 -4.23337,-23.05606 -2.01868,-6.20781 -2.54893,-8.45552 -2.57737,-10.92546 -0.0318,-2.75991 0.53216,-4.16434 3.60475,-8.97722 5.29433,-8.29299 5.92023,-11.50321 4.71414,-24.17844 -0.32189,-3.38289 -0.58592,-7.43101 -0.58673,-8.99583 -0.002,-2.93047 -0.94818,-9.84041 -2.27467,-16.60346 -0.82885,-4.22581 -1.10688,-9.69162 -0.6537,-12.85094 0.62251,-4.33982 2.59262,-9.16778 5.76859,-14.136558 1.62539,-2.542897 6.45041,-7.216023 10.17508,-9.854747 2.83163,-2.006063 4.20909,-3.325175 4.9051,-4.697336 0.14763,-0.291042 0.4771,-1.480984 0.73217,-2.644315 0.89836,-4.097379 3.96043,-12.186224 10.31695,-27.253601 5.3155,-12.599736 4.77426,-11.650269 9.30687,-16.32666 7.60308,-7.844274 13.09961,-14.787559 15.16464,-19.156193 1.18962,-2.516685 1.59456,-4.41367 1.8577,-8.702563 0.26336,-4.2925978 0.59853,-5.8855641 1.69966,-8.0778671 2.11215,-4.2051975 7.21921,-8.7961231 11.83723,-10.6409224 0.92252,-0.3685276 2.84631,-0.8686165 4.2751,-1.1113056 2.16171,-0.3671861 2.93895,-0.3907234 4.6302,-0.1402106 2.544792,0.3769413 6.26672,1.8262017 8.514718,3.315499 2.275261,1.5073577 7.179263,5.56170296 7.644993,6.32043534 0.457041,0.74457716 0.226221,1.79463966 -0.554337,2.52183896 -1.121105,1.0444718 -2.020234,0.6410246 -5.909532,-2.65165148 -4.465817,-3.78075822 -7.966282,-5.39967212 -11.632162,-5.37969872 -4.47451,0.024368 -8.48498,1.9924315 -12.31714,6.0443691 -3.11409,3.2926972 -3.69064,4.7521706 -3.97569,10.0640965 -0.40042,7.461715 -1.86405,10.992818 -7.69289,18.559576 -2.76459,3.588885 -7.58016,9.091845 -11.0797,12.661257 -3.31393,3.380105 -3.17549,3.132262 -7.61135,13.626041 -6.40417,15.150108 -9.73162,23.955933 -10.4977,27.78125 -0.74475,3.718869 -2.3736,5.886953 -6.76187,9.000437 -4.33273,3.074075 -7.42013,6.021049 -9.35876,8.933109 -2.0718,3.11208 -3.87272,6.82998 -4.70608,9.71541 -0.53314,1.84595 -0.61062,2.69194 -0.60583,6.61459 0.005,3.80763 0.11661,5.06638 0.72953,8.20208 1.49684,7.65783 2.07995,12.09362 2.31295,17.59479 0.12634,2.98318 0.48297,8.04333 0.7925,11.24479 0.48352,5.00113 0.52013,6.1894 0.25994,8.43801 -0.60915,5.26439 -2.28674,9.48063 -6.14457,15.4431 -1.40896,2.1776 -2.38591,3.99192 -2.57584,4.78361 -0.42434,1.76886 -0.0263,3.85163 1.85361,9.69987 1.78908,5.56559 2.36185,7.75108 3.25903,12.43542 0.85539,4.46609 1.41976,9.17477 1.63319,13.62604 0.1993,4.1564 0.79477,7.53864 1.97975,11.24479 0.73471,2.29786 1.34536,3.69327 3.09829,7.07988 0.92261,1.7825 -0.58202,3.46837 -2.61423,2.92913 z m 209.509593,-59.6253 c -0.96084,-0.75578 -1.065146,-1.32947 -0.558562,-3.07207 0.463447,-1.5942 0.445132,-2.37511 -0.182189,-7.76894 -0.160785,-1.38245 -0.313608,-6.20448 -0.339606,-10.71562 -0.0401,-6.95833 -0.117936,-8.44281 -0.513284,-9.78959 -0.806069,-2.7459 -1.215885,-3.31577 -3.591893,-4.99474 -2.857942,-2.01951 -4.17726,-3.38482 -5.003967,-5.17839 -0.619136,-1.34324 -0.678828,-1.84103 -0.872495,-7.27604 -0.170765,-4.79224 -0.423035,-7.29896 -1.41256,-14.03624 -1.611932,-10.975 -1.827091,-12.05972 -3.306316,-16.66875 C 17.235662,93.062523 16.247806,89.696243 15.852674,87.541151 15.207713,84.023446 15.03604,57.28211 15.604238,48.842238 16.601781,34.024965 15.826547,26.215296 12.528677,17.859239 10.402647,12.472364 6.0492268,7.9112096 1.7372038,6.5528256 -0.02243143,5.9984997 -0.77480059,5.9376588 -14.270088,5.2583887 -22.79329,4.82938 -28.225676,3.935517 -31.245897,2.4651296 c -2.690953,-1.3100818 -4.490154,-4.2071316 -5.250437,-8.4541862 -0.777165,-4.3413574 -1.045199,-4.7204734 -3.30142,-4.6696414 -1.43786,0.03239 -5.383194,1.1267859 -6.96908,1.933146 -2.855219,1.4517661 -8.12329,5.5709766 -8.801137,6.8817886 -0.938464,1.8147929 -2.358329,2.33114844 -3.495897,1.27134139 -1.48935,-1.38753849 -0.818891,-3.21147539 2.225656,-6.05474609 5.170189,-4.8283889 11.237952,-7.8132939 16.571095,-8.1517989 2.846533,-0.180674 4.226057,0.265811 5.633,1.82313 1.26601,1.40132 1.6196,2.304034 2.11962,5.4113664 0.47784,2.9695061 1.351764,5.0290174 2.491576,5.8717153 0.99246,0.73375838 4.931169,1.78010078 8.079917,2.14647726 2.281232,0.26543793 6.524185,0.52250709 17.4624996,1.05801314 5.7023687,0.2791698 7.8973917,0.797904 10.971215,2.59275 2.2306015,1.3024802 5.5374014,4.4566733 7.0367394,6.7119999 2.713056,4.081021 4.717417,9.674728 5.964039,16.64425 0.714002,3.99179 0.944239,12.084256 0.515641,18.123958 -0.85416,12.03661 -0.788458,37.06751 0.109379,41.671874 0.405937,2.081745 1.23731,4.893212 3.872865,13.096873 1.419336,4.41796 1.944706,6.8299 2.881574,13.22917 1.688481,11.53312 1.892594,13.36909 2.077199,18.68423 0.187515,5.39889 0.196889,5.4648 0.910145,6.39992 0.396373,0.51968 1.971183,1.85618 3.499583,2.97002 2.623693,1.91205 2.829086,2.13093 3.677372,3.91883 1.681586,3.54422 1.865458,4.89831 1.891864,13.93221 0.01532,5.24446 0.155614,9.13508 0.400693,11.1125 0.710252,5.73071 0.388106,9.04496 -1.015617,10.44868 -0.803415,0.80341 -1.613609,0.84442 -2.524704,0.12774 z m -117.838216,-2.95343 c -0.870294,-0.42077 -1.282845,-1.62029 -0.886418,-2.57734 0.332762,-0.80335 0.803151,-1.08773 3.726355,-2.25274 1.347073,-0.53684 2.142646,-1.10268 3.563257,-2.53426 1.005933,-1.0137 2.212049,-1.96953 2.680259,-2.12405 1.447808,-0.47781 3.635359,0.38921 6.90836,2.73804 l 1.127834,0.80939 1.518,-0.4957 c 0.8349,-0.27262 2.768155,-0.57896 4.296124,-0.68074 1.527969,-0.10179 3.114138,-0.27271 3.524819,-0.37984 1.578649,-0.41174 2.94196,1.22521 2.303703,2.76609 -0.498748,1.20409 -1.812814,1.67272 -5.299355,1.88992 -1.76607,0.11001 -3.542263,0.37806 -4.233334,0.63886 -1.962732,0.74068 -3.322515,0.45347 -5.875398,-1.24097 -1.206915,-0.80106 -2.35485,-1.54763 -2.550964,-1.65902 -0.236292,-0.13422 -0.816417,0.24069 -1.719792,1.11146 -1.876682,1.80893 -2.599277,2.26063 -5.367475,3.35529 -2.578552,1.01965 -2.831925,1.06299 -3.715975,0.63561 z m 16.795917,-34.20592 c -0.360604,-0.36061 -0.894893,-1.45806 -1.191501,-2.4474 -0.295754,-0.9865 -1.099455,-3.629 -1.785999,-5.87223 -2.827993,-9.24024 -5.701313,-21.07389 -5.701313,-23.48061 0,-1.03824 1.120659,-2.20642 2.116667,-2.20642 0.96483,0 2.116667,1.16918 2.116667,2.14854 0,2.53647 3.279111,15.425 6.533417,25.67956 1.328803,4.18715 1.450485,4.75862 1.161711,5.45578 -0.58529,1.41302 -2.200222,1.7722 -3.249649,0.72278 z m 19.992517,-54.424444 c -1.745332,-0.845102 -1.391783,-4.131479 0.799647,-7.433008 0.66148,-0.996561 1.360998,-1.654222 2.307355,-2.169295 1.269539,-0.690972 1.636559,-0.751416 5.629333,-0.927126 2.547842,-0.112125 4.536723,-0.322935 4.92919,-0.522468 0.361865,-0.183978 1.144471,-0.850934 1.739122,-1.482127 1.217152,-1.291944 2.229392,-1.673283 3.143308,-1.184169 0.670756,0.358976 1.199465,1.311617 1.199465,2.161217 0,0.319313 -0.74303,1.287119 -1.798572,2.342661 -2.338972,2.33897 -3.307225,2.660168 -8.678335,2.878844 -2.729789,0.111138 -4.128971,0.27424 -4.418944,0.515114 -0.58823,0.48863 -1.772899,2.931451 -1.772899,3.65577 0,0.929412 -0.524785,1.857938 -1.232249,2.180283 -0.768874,0.350321 -1.096262,0.347538 -1.846421,-0.01569 z M -109.5674,86.962049 c -0.71729,-0.346784 -1.25067,-1.576242 -1.01118,-2.330807 0.0991,-0.312216 0.6822,-1.184198 1.29578,-1.937734 0.61359,-0.753536 2.10375,-2.599881 3.31148,-4.102987 2.19378,-2.730333 3.38542,-3.746518 4.39558,-3.748381 0.2948,-5.29e-4 1.38589,0.52791 2.424643,1.174343 3.775307,2.349442 6.395368,3.366481 14.498319,5.627872 2.314832,0.646028 2.687371,0.831454 3.005913,1.49614 0.486376,1.014899 0.114737,2.279967 -0.824685,2.80725 -0.660977,0.370996 -0.9452,0.343117 -3.695832,-0.362545 -6.433445,-1.650471 -11.549875,-3.616756 -14.647468,-5.629135 -0.52374,-0.340257 -0.69014,-0.191929 -2.93928,2.620018 -3.94431,4.931331 -4.23367,5.149641 -5.81327,4.385966 z"
         id="path1" />
      <path
         style="fill:#800080;stroke-width:0.264583"
         d="m -187.65993,320.27421 c -0.80704,-0.46283 -1.17294,-1.05634 -1.18221,-1.91759 -0.007,-0.64968 0.45026,-1.22473 2.70357,-3.39997 6.27021,-6.05298 18.57745,-17.03793 26.23009,-23.4119 15.67815,-13.05854 29.17183,-20.48973 44.04287,-24.25512 3.62028,-0.91668 12.58073,-2.44057 15.68852,-2.66814 2.454483,-0.17973 2.481672,-0.1751 3.203101,0.54721 0.790945,0.7919 0.889926,1.3335 0.428699,2.3458 -0.388427,0.85249 -1.214784,1.14723 -3.80214,1.35609 -2.51414,0.20299 -10.20945,1.47982 -13.36972,2.21838 -13.33597,3.1166 -26.26763,9.85403 -39.9899,20.83477 -6.94075,5.55411 -21.62535,18.47146 -28.34121,24.93047 -3.97089,3.81902 -4.42904,4.09824 -5.61167,3.42 z M 56.418186,299.45246 c -10.041991,-3.00427 -17.412285,-5.5939 -29.633323,-10.41196 -8.691787,-3.42668 -12.218855,-4.96681 -19.8437496,-8.66503 -9.3176512,-4.51924 -14.5395816,-6.38558 -21.8172394,-7.79759 -3.433419,-0.66614 -4.111927,-1.08077 -4.111927,-2.51274 0,-0.9398 1.166908,-2.12487 2.086599,-2.11908 1.004697,0.006 7.1201787,1.39901 10.3488176,2.35672 4.8640391,1.44286 8.4130911,2.89584 15.8749998,6.49926 13.9841156,6.75301 34.4862146,14.65206 48.4187386,18.65479 1.091406,0.31355 2.788047,0.80441 3.770313,1.09077 l 1.785937,0.52067 v 2.10545 c 0,1.83753 -0.05892,2.10256 -0.463021,2.08262 -0.254661,-0.0127 -3.141927,-0.82431 -6.416145,-1.80388 z m -84.86894,-24.64126 c -0.329539,-0.13239 -0.712031,-0.53758 -0.849979,-0.90043 -0.504508,-1.32693 -2.418112,-23.40808 -2.912367,-33.60584 -0.650078,-13.41284 -0.189254,-21.37536 1.765803,-30.51108 0.762696,-3.56399 1.357812,-4.5584 2.727994,-4.5584 0.844873,0 2.116667,1.14776 2.116667,1.91024 0,0.28331 -0.248854,1.48746 -0.553008,2.67589 -2.783293,10.87503 -2.735221,27.07285 0.167761,56.52642 0.718495,7.28983 0.67931,7.86879 -0.571127,8.43855 -0.765024,0.34856 -1.075407,0.35261 -1.891744,0.0246 z m -121.951776,-1.05052 c -0.86726,-0.34944 -1.22595,-1.22648 -1.01456,-2.48082 0.10097,-0.59907 0.27251,-2.11269 0.3812,-3.36364 0.2395,-2.75643 0.93755,-4.05969 4.66291,-8.70577 2.43779,-3.04028 4.62212,-6.03597 4.61391,-6.32773 -0.002,-0.085 -0.7296,-0.51175 -1.61602,-0.94832 -2.93282,-1.44441 -3.78104,-3.15669 -3.04384,-6.14449 0.54205,-2.19687 2.99165,-7.32171 5.4896,-11.48493 2.75559,-4.59261 3.51318,-6.66583 3.51627,-9.62266 0.002,-2.33034 -0.0332,-2.4661 -1.66768,-6.35 -0.9186,-2.18281 -2.50173,-6.05234 -3.51807,-8.59896 -3.31181,-8.29823 -6.89937,-15.51884 -10.12229,-20.37291 -4.18111,-6.29722 -6.07047,-10.39146 -6.86314,-14.87247 -1.56532,-8.84886 -0.29742,-15.05916 5.6605,-27.72545 4.26194,-9.06074 6.20717,-14.16398 6.88698,-18.06774 0.59106,-3.39409 -0.003,-4.25891 -4.76456,-6.93114 -5.30408,-2.97696 -6.53763,-5.32283 -4.74843,-9.03018 1.39328,-2.887 9.666,-10.24257 19.72662,-17.539644 7.08715,-5.140388 6.51449,-4.526018 6.3083,-6.767655 -0.19097,-2.076106 0.4623,-10.400561 1.06228,-13.536358 0.81847,-4.277762 2.52659,-9.586362 4.6172,-14.349629 1.9163,-4.366125 5.05343,-8.886807 10.01877,-14.437307 4.13395,-4.62112 6.30045,-7.346445 8.76541,-11.026339 2.41051,-3.598605 3.23867,-4.462798 4.2786,-4.464775 0.85678,-0.0016 2.086601,1.176026 2.086601,1.998086 0,0.668322 -3.548691,6.104215 -6.181181,9.468342 -0.9289,1.187064 -3.16259,3.828285 -4.96376,5.869379 -7.29138,8.262636 -9.56259,11.884033 -12.15718,19.384386 -2.31637,6.696101 -3.19958,12.013374 -3.2637,19.648659 -0.0514,6.124593 0.41417,5.429067 -7.43314,11.104089 -9.89933,7.159016 -18.64775,14.826846 -19.31505,16.929296 -0.24349,0.76717 0.37702,1.40079 2.64473,2.70059 1.01951,0.58436 2.29759,1.34655 2.84017,1.69375 1.19525,0.76485 1.36321,0.78477 1.00717,0.1195 -0.461,-0.86139 -0.30784,-1.76336 0.42365,-2.49486 0.88402,-0.88401 1.93502,-0.90322 2.7873,-0.051 0.72043,0.72043 2.86205,7.42144 5.92394,18.53571 6.49741,23.58475 11.382,37.17576 18.4952,51.46146 5.76822,11.58454 11.07938,19.41668 17.59464,25.94607 6.337119,6.35087 12.103548,9.8325 19.317974,11.66373 10.33849,2.62425 21.235273,0.42752 29.995291,-6.04681 11.043448,-8.16195 25.216037,-28.82747 32.533396,-47.43799 4.733115,-12.03794 8.369684,-25.3699 9.5986731,-35.18959 0.5076349,-4.056 0.4296622,-8.38931 -0.3034771,-16.86619 -0.408842,-4.72717 -0.409406,-5.36258 -0.0079,-8.86354 0.4634658,-4.0409 1.3986461,-8.96429 2.9527689,-15.545266 0.8515509,-3.605916 0.9712299,-4.532278 0.99128,-7.672916 0.02077,-3.251774 -0.042942,-3.761566 -0.7108587,-5.688542 -1.1789463,-3.401332 -2.5572878,-6.084517 -5.3006992,-10.31875 -3.111405,-4.802203 -4.940493,-8.501618 -5.690537,-11.509375 -0.308454,-1.236927 -0.917093,-5.463645 -1.352537,-9.392708 -0.921443,-8.314295 -1.109157,-9.499539 -2.011373,-12.7 -1.299329,-4.609152 -4.02237,-8.981424 -6.920388,-11.111777 -4.74109,-3.485208 -10.486861,-4.914569 -14.842704,-3.69238 -1.861019,0.522174 -2.648194,0.312095 -3.176667,-0.847777 -0.446344,-0.979618 -0.357622,-1.542302 0.355655,-2.255579 0.94202,-0.942019 2.294062,-1.303472 5.473933,-1.463389 9.89543,-0.497647 19.363349,6.431341 22.672733,16.592777 1.118571,3.434565 1.648759,6.352403 2.427859,13.361459 1.349026,12.136297 1.682575,13.179922 6.6598428,20.837551 2.7590327,4.244829 4.9237,8.614053 5.9307465,11.970782 0.629322,2.09768 0.7141871,2.822358 0.7126367,6.085416 -0.00185,3.887571 -0.0127,3.956145 -2.0333573,12.832292 -1.8159995,7.977202 -2.0869751,10.156702 -1.9408272,15.610412 0.1905238,7.1096 0.7998116,8.76102 6.12729217,16.60747 2.73067463,4.02178 7.26624403,9.58628 7.81370133,9.58628 0.3751395,0 2.879672,3.23597 3.679198,4.75369 1.145926,2.17528 1.622623,4.7288 1.622623,8.69188 0,4.6581 -0.684093,8.37721 -2.920984,15.88006 -2.3949128,8.0329 -2.9629944,10.78997 -2.980015,14.46291 -0.016801,3.62816 0.6811724,5.96382 2.885982,9.6573 2.137529,3.58076 4.70022,9.00197 5.541021,11.72167 0.686281,2.21988 0.71298,2.51111 0.57,6.21771 -0.17017,4.41143 -0.5788,6.51235 -2.54413,13.08047 -1.832039,6.12262 -2.980106,11.86328 -3.00336,15.01765 -0.03067,4.15993 0.868953,6.65694 3.938503,10.93179 2.177081,3.03191 3.130478,5.78908 2.91955,8.44314 -0.07897,0.9937 -0.0316,1.84804 0.10723,1.93384 0.461547,0.28525 0.253098,1.78244 -0.584742,4.19994 -0.458396,1.32265 -0.965436,2.58342 -1.126757,2.8017 -0.161325,0.21828 -0.52451,0.85286 -0.807083,1.41015 -0.629954,1.24246 -1.834208,2.29402 -2.627082,2.29402 -0.733295,0 -1.689804,-0.86111 -1.903865,-1.71402 -0.160377,-0.63897 0.843936,-3.23734 1.584584,-4.09964 0.716063,-0.83368 1.01771,-2.34935 1.080881,-5.43113 0.07805,-3.80733 -0.272314,-4.99867 -2.263169,-7.69565 -3.6765358,-4.98049 -5.0626508,-9.68293 -4.4627293,-15.13993 0.4022302,-3.65877 1.6347387,-9.27841 3.1447158,-14.33838 2.0344655,-6.81755 2.4309145,-8.89159 2.4309145,-12.71749 0,-1.40409 -0.175567,-2.96683 -0.432673,-3.85125 -0.693957,-2.38712 -2.6142735,-6.49123 -4.6092689,-9.85096 -3.0814009,-5.1893 -4.1188084,-8.42574 -4.0832589,-12.73863 0.037386,-4.53554 0.6204796,-7.21905 4.0530832,-18.65313 2.4389582,-8.12421 2.5862465,-15.69763 0.3742346,-19.24269 -0.3878739,-0.62162 -1.9761411,-2.43991 -3.5294808,-4.04064 -3.49724655,-3.60395 -4.40616437,-4.73223 -7.0336488,-8.73125 l -2.0860808,-3.175 -0.5782469,4.68137 c -1.211535,9.80836 -4.2332513,21.38369 -8.7583987,33.55092 -3.978984,10.69869 -8.418446,19.25698 -15.48131,29.84447 -10.94359,16.40485 -20.437488,25.00821 -31.429447,28.48128 -4.197837,1.32636 -8.030964,1.81079 -13.094343,1.65481 -6.755899,-0.20809 -11.170734,-1.29233 -16.933333,-4.15869 -15.159641,-7.54047 -28.211911,-25.96047 -39.742451,-56.08645 -2.98872,-7.80868 -6.36404,-18.51791 -10.00692,-31.75 -1.64263,-5.96654 -2.24125,-7.71288 -2.24125,-6.53838 0,0.65412 -1.49014,5.21081 -2.69804,8.2503 -0.57658,1.45089 -2.12218,4.9037 -3.43466,7.67292 -5.40126,11.39617 -6.9009,16.69254 -6.44496,22.76203 0.45845,6.10278 1.83363,9.74352 6.14965,16.281 1.29366,1.95951 2.7952,4.29641 3.33676,5.19314 1.95343,3.23451 5.37932,10.99881 11.83056,26.81232 2.59242,6.35463 1.93611,10.50748 -2.94792,18.65312 -2.25477,3.76053 -4.65301,8.80182 -4.78297,10.05417 -0.0763,0.73541 0.0469,0.8618 1.6769,1.71979 2.17705,1.14594 2.77125,1.67439 3.14039,2.79289 0.64551,1.95591 -1.12888,5.20221 -5.86449,10.72933 -0.69917,0.81603 -1.73174,2.24478 -2.29462,3.175 -0.86002,1.42132 -1.05062,2.00811 -1.19393,3.6757 -0.36537,4.25154 -1.38535,5.62594 -3.53298,4.76065 z m 47.72533,-19.8713 c -0.6851,-0.39856 -0.76583,-0.68556 -2.56751,-9.12775 -0.89722,-4.20415 -2.40758,-10.67999 -3.35636,-14.39077 -2.38394,-9.32381 -3.24581,-12.97908 -3.25116,-13.78839 -0.006,-0.91588 1.17899,-2.08661 2.11209,-2.08661 0.86603,0 2.11654,1.15443 2.11697,1.95432 2.7e-4,0.53515 0.44174,2.34794 3.38998,13.92068 1.28676,5.05092 4.811805,21.0675 4.811805,21.86316 0,0.62508 -1.476155,1.95027 -2.162465,1.9413 -0.33861,-0.005 -0.83062,-0.13311 -1.09335,-0.28594 z m -76.15975,-11.26056 c -0.91065,-0.24164 -2.89461,-3.92395 -4.18095,-7.76004 -1.63428,-4.87371 -2.10197,-7.42484 -2.52221,-13.75833 -0.60129,-9.06201 -1.79262,-15.55028 -4.23337,-23.05606 -2.01868,-6.20781 -2.54893,-8.45553 -2.57737,-10.92547 -0.0318,-2.75989 0.53216,-4.16433 3.60475,-8.9772 5.29433,-8.293 5.92023,-11.50321 4.71414,-24.17845 -0.32189,-3.38288 -0.58592,-7.43101 -0.58673,-8.99582 -0.002,-2.93047 -0.94818,-9.84041 -2.27467,-16.60346 -0.82885,-4.22582 -1.10688,-9.69162 -0.6537,-12.85094 0.62251,-4.33982 2.59262,-9.16779 5.76859,-14.13656 1.62539,-2.542898 6.45041,-7.216024 10.17508,-9.854748 2.83163,-2.006063 4.20909,-3.325175 4.9051,-4.697336 0.14763,-0.291042 0.4771,-1.480984 0.73217,-2.644314 0.89836,-4.09738 3.96043,-12.186224 10.31695,-27.253602 5.3155,-12.599736 4.77426,-11.650268 9.30687,-16.32666 7.60308,-7.844274 13.09961,-14.787559 15.16464,-19.156192 1.18962,-2.516685 1.59456,-4.413671 1.8577,-8.702564 0.26336,-4.2925976 0.59853,-5.8855638 1.69966,-8.0778669 2.11215,-4.2051975 7.21921,-8.7961231 11.83723,-10.6409224 0.92252,-0.3685276 2.84631,-0.8686165 4.27509,-1.1113056 2.16172,-0.3671861 2.93896,-0.3907234 4.63021,-0.1402106 2.54479,0.3769413 6.26672,1.8262018 8.514718,3.315499 2.275261,1.5073577 7.179262,5.561703 7.644993,6.3204354 0.457041,0.7445771 0.226221,1.7946396 -0.554337,2.5218389 -1.121106,1.0444718 -2.020234,0.6410246 -5.909532,-2.6516515 -4.465822,-3.7807582 -7.966282,-5.3996721 -11.632162,-5.3796987 -4.47451,0.024368 -8.48498,1.9924315 -12.31714,6.0443691 -3.11409,3.2926972 -3.69064,4.7521706 -3.97569,10.0640963 -0.40042,7.461716 -1.86405,10.992818 -7.69289,18.559576 -2.76459,3.588885 -7.58016,9.091845 -11.0797,12.661257 -3.31393,3.380105 -3.17549,3.132262 -7.61135,13.626042 -6.40417,15.150107 -9.73162,23.955932 -10.4977,27.781249 -0.74475,3.71887 -2.3736,5.886953 -6.76187,9.000437 -4.33273,3.074075 -7.42013,6.021052 -9.35876,8.933102 -2.0718,3.11209 -3.87272,6.82999 -4.70608,9.71542 -0.53314,1.84595 -0.61062,2.69194 -0.60583,6.61458 0.005,3.80764 0.11661,5.06638 0.72953,8.20209 1.49684,7.65783 2.07995,12.09361 2.31295,17.59479 0.12634,2.98317 0.48297,8.04333 0.7925,11.24479 0.48352,5.00113 0.52013,6.1894 0.25994,8.43801 -0.60915,5.26439 -2.28674,9.48063 -6.14457,15.44309 -1.40896,2.1776 -2.38591,3.99193 -2.57584,4.78362 -0.42434,1.76884 -0.0263,3.85162 1.85361,9.69986 1.78908,5.56559 2.36185,7.75108 3.25903,12.43542 0.85539,4.46609 1.41976,9.17477 1.63319,13.62604 0.1993,4.15639 0.79477,7.53864 1.97975,11.24479 0.7347,2.29785 1.34536,3.69327 3.09829,7.07988 0.92261,1.7825 -0.58202,3.46837 -2.61423,2.92912 z M 30.672643,183.00354 c -0.96084,-0.75578 -1.065147,-1.32948 -0.558562,-3.07208 0.463447,-1.59419 0.445132,-2.37511 -0.18219,-7.76893 -0.160784,-1.38245 -0.313608,-6.20448 -0.339606,-10.71562 -0.0401,-6.95833 -0.117935,-8.44281 -0.513283,-9.78959 -0.806069,-2.7459 -1.215885,-3.31578 -3.591894,-4.99474 -2.857941,-2.01951 -4.17726,-3.38482 -5.003966,-5.17839 -0.619136,-1.34325 -0.678828,-1.84103 -0.872496,-7.27605 -0.170764,-4.79223 -0.423034,-7.29896 -1.41256,-14.03623 C 16.586155,109.1969 16.370996,108.11219 14.891771,103.50316 12.120822,94.86932 11.132965,91.50304 10.737834,89.347948 10.092872,85.830244 9.9212001,59.088907 10.489398,50.649035 11.486941,35.831762 10.711706,28.022093 7.4138365,19.666036 5.2878063,14.279162 0.93438656,9.7180069 -3.3776364,8.3596228 -5.1372717,7.8052969 -5.8896409,7.744456 -19.384928,7.0651859 -27.908131,6.6361773 -33.340516,5.7423142 -36.360737,4.2719268 c -2.690953,-1.3100817 -4.490154,-4.20713161 -5.250437,-8.4541862 -0.777166,-4.3413573 -1.045199,-4.7204735 -3.30142,-4.6696418 -1.43786,0.032393 -5.383194,1.1267864 -6.96908,1.9331464 -2.85522,1.4517661 -8.123291,5.5709766 -8.801137,6.8817886 -0.938464,1.8147929 -2.358329,2.3311485 -3.495897,1.2713414 -1.489351,-1.38753847 -0.818891,-3.2114754 2.225656,-6.0547461 5.170188,-4.8283891 11.237952,-7.8132941 16.571095,-8.1517991 2.846533,-0.180673 4.226057,0.265811 5.633,1.82313 1.26601,1.4013205 1.619599,2.3040339 2.119619,5.4113667 0.477841,2.969506 1.351765,5.02901733 2.491576,5.87171524 0.99246,0.73375837 4.93117,1.78010076 8.079918,2.14647726 2.281232,0.2654379 6.524185,0.5225071 17.4624993,1.0580132 5.7023687,0.2791698 7.8973917,0.7979039 10.971215,2.5927499 2.2306015,1.3024802 5.537401,4.4566737 7.0367392,6.7119997 2.7130555,4.081021 4.7174175,9.674728 5.9640385,16.64425 0.714002,3.99179 0.94424,12.084256 0.515642,18.123958 -0.85416,12.03661 -0.788459,37.067511 0.109378,41.671874 0.405937,2.081745 1.237311,4.893212 3.872865,13.096876 1.419336,4.41795 1.944706,6.8299 2.881575,13.22917 1.688481,11.53312 1.892593,13.36909 2.077198,18.68423 0.187516,5.39889 0.19689,5.46479 0.910146,6.39992 0.396372,0.51967 1.971183,1.85618 3.499583,2.97002 2.623693,1.91205 2.829086,2.13093 3.677372,3.91883 1.681586,3.54421 1.865458,4.89831 1.891863,13.9322 0.01532,5.24447 0.155615,9.13509 0.400693,11.1125 0.710253,5.73072 0.388107,9.04497 -1.015616,10.44869 -0.803415,0.80341 -1.613609,0.84442 -2.524704,0.12774 z M -87.165573,180.0501 c -0.870294,-0.42076 -1.282846,-1.62028 -0.886418,-2.57733 0.332761,-0.80335 0.803151,-1.08773 3.726355,-2.25274 1.347073,-0.53684 2.142646,-1.10268 3.563257,-2.53426 1.005933,-1.0137 2.212049,-1.96953 2.680258,-2.12405 1.447808,-0.47781 3.63536,0.3892 6.908361,2.73804 l 1.127834,0.80939 1.517999,-0.4957 c 0.834901,-0.27262 2.768156,-0.57896 4.296125,-0.68074 1.527968,-0.10179 3.114138,-0.27271 3.524818,-0.37984 1.57865,-0.41174 2.941961,1.22521 2.303704,2.76609 -0.498748,1.20409 -1.812814,1.67272 -5.299356,1.88992 -1.76607,0.11001 -3.542262,0.37806 -4.233333,0.63886 -1.962732,0.74067 -3.322516,0.45347 -5.875398,-1.24098 -1.206916,-0.80105 -2.35485,-1.54762 -2.550965,-1.65901 -0.236291,-0.13423 -0.816416,0.24069 -1.719791,1.11146 -1.876682,1.80893 -2.599277,2.26062 -5.367475,3.35528 -2.578553,1.01966 -2.831926,1.06299 -3.715975,0.63561 z m 16.795916,-34.20591 c -0.360603,-0.36061 -0.894892,-1.45806 -1.1915,-2.4474 -0.295754,-0.9865 -1.099455,-3.629 -1.785999,-5.87223 -2.827993,-9.24024 -5.701313,-21.07389 -5.701313,-23.48062 0,-1.03823 1.120659,-2.20641 2.116667,-2.20641 0.964829,0 2.116666,1.16918 2.116666,2.14854 0,2.53647 3.279111,15.425 6.533417,25.67955 1.328804,4.18716 1.450486,4.75862 1.161712,5.45578 -0.58529,1.41302 -2.200222,1.77221 -3.24965,0.72279 z M -50.37714,91.419744 c -1.745332,-0.845103 -1.391782,-4.13148 0.799648,-7.433009 0.661479,-0.996561 1.360998,-1.654222 2.307354,-2.169294 1.26954,-0.690973 1.636559,-0.751417 5.629333,-0.927127 2.547843,-0.112125 4.536724,-0.322934 4.929191,-0.522467 0.361865,-0.183978 1.144471,-0.850935 1.739122,-1.482127 1.217152,-1.291945 2.229392,-1.673284 3.143308,-1.184169 0.670756,0.358976 1.199465,1.311616 1.199465,2.161217 0,0.319312 -0.74303,1.287118 -1.798572,2.34266 -2.338972,2.33897 -3.307225,2.660169 -8.678336,2.878844 -2.729788,0.111138 -4.128971,0.274241 -4.418943,0.515115 -0.58823,0.48863 -1.772899,2.931451 -1.772899,3.655769 0,0.929412 -0.524785,1.857938 -1.232249,2.180283 -0.768874,0.350321 -1.096262,0.347538 -1.846422,-0.01569 z m -64.3051,-2.650898 c -0.71729,-0.346784 -1.25067,-1.576242 -1.01118,-2.330807 0.0991,-0.312216 0.68219,-1.184198 1.29578,-1.937734 0.61359,-0.753536 2.10375,-2.599881 3.31148,-4.102986 2.19378,-2.730334 3.38542,-3.746519 4.39558,-3.748382 0.2948,-5.29e-4 1.38589,0.52791 2.42464,1.174343 3.77531,2.349442 6.39537,3.366482 14.498322,5.627873 2.314832,0.646027 2.68737,0.831453 3.005913,1.496139 0.486375,1.014899 0.114736,2.279967 -0.824685,2.80725 -0.660977,0.370996 -0.9452,0.343117 -3.695833,-0.362545 -6.433444,-1.650471 -11.549877,-3.616756 -14.647467,-5.629135 -0.52374,-0.340257 -0.69015,-0.191928 -2.93928,2.620018 -3.94431,4.931331 -4.23367,5.149641 -5.81327,4.385966 z"
         id="path1-5" />
    </g>
  </g>
</svg>
